<svg xmlns="http://www.w3.org/2000/svg" viewBox="0 0 134.2 219.6"><path d="M41.9 1.1C36.9 2.8 18.3 6.2 11.9 11.5C5.6 16.7 4.7 25.4 3.7 32.4C2.6 39.4 3.3 46.4 5.6 53.4C7.9 60.3 12 68.9 17.4 73.8C22.8 78.8 28 80.3 37.9 83.3C47.8 86.3 65.7 88.8 76.8 91.8C88 94.8 97.2 96.2 105 101C112.7 105.9 118.7 114.2 123.3 120.9C127.9 127.6 130.9 132.6 132.5 141.2C134 149.8 134.2 163.7 132.7 172.5C131.2 181.4 126.7 188.7 123.6 194.2C120.5 199.6 120.5 201.5 114.2 205.3C107.9 209.1 96.8 215 85.8 217.1C74.8 219.3 59.1 219.6 48.3 218.1C37.4 216.6 26.7 211.5 20.5 208.2C14.4 204.9 14.5 203.3 11.4 198.3C8.3 193.4 3.6 186.8 2 178.5C0.3 170.1 0 156.7 1.4 148.1C2.8 139.5 5.8 134.2 10.4 127C15 119.8 21.2 110.6 29.1 104.9C37 99.2 46.7 96.7 57.8 92.7C68.9 88.7 86.2 84.5 95.7 80.9C105.1 77.2 109.7 75.5 114.4 70.6C119.1 65.6 122.2 57.5 123.7 51.1C125.2 44.7 125.2 38.4 123.4 31.9C121.7 25.5 119.9 17.6 113.1 12.6C106.3 7.6 94.5 3.8 82.6 1.9C70.7 0 48.6 1.2 41.9 1.1" fill="none" stroke="#000" stroke-width="12" stroke-linecap="round" stroke-linejoin="round"/></svg>
