<svg xmlns="http://www.w3.org/2000/svg" viewBox="0 0 136.6 219.3"><path d="M128.3 0C128.5 36.1 129.3 180.3 129.5 216.3M136.6 111.5C133.1 108.1 122.5 96.1 115.5 90.9C108.5 85.7 103.4 82.3 94.6 80.4C85.9 78.5 71.9 78.3 62.9 79.5C53.8 80.8 48.2 83.6 40.4 87.9C32.6 92.1 22.5 97.3 16.2 104.9C9.8 112.4 4.9 124.9 2.5 133.1C0.1 141.2 0 144.8 1.6 153.6C3.2 162.4 6.7 177 12 186C17.2 195 26.1 202.3 33.1 207.6C40.1 212.9 45.2 216.3 53.9 217.8C62.7 219.3 76.6 218.6 85.6 216.6C94.6 214.6 100.3 210.8 108 205.8C115.8 200.9 128.2 190 132.3 186.9" fill="none" stroke="#000" stroke-width="12" stroke-linecap="round" stroke-linejoin="round"/></svg>
